<svg width="218" height="240" viewBox="0 0 218 240" fill="none" xmlns="http://www.w3.org/2000/svg">
<path fill-rule="evenodd" clip-rule="evenodd" d="M2.69772 57.7842L107.651 0V70.8529L67.0427 93.2107L2.69772 57.7842ZM64.3447 97.569L0 62.1427V177.857L64.3447 142.431V97.569ZM72.3052 138.048V101.952L105.086 120L72.3052 138.048ZM67.0418 146.79L2.69772 182.216L107.651 240V169.148L67.0418 146.79ZM107.651 160.382L75.0023 142.407L107.651 124.432V160.382ZM112.958 169.148V240L218 182.167L153.656 146.741L112.958 169.148ZM145.696 142.358L112.958 160.383V124.334L145.696 142.358ZM153.655 93.2592L218 57.8329L112.958 0V70.8525L153.655 93.2592ZM107.651 79.6186V115.568L75.0033 97.5935L107.651 79.6186Z" fill="white"/>
</svg>
