<svg width="22" height="24" viewBox="0 0 22 24" fill="none" xmlns="http://www.w3.org/2000/svg">
<path fill-rule="evenodd" clip-rule="evenodd" d="M0.263997 5.77842L10.5347 0V7.08529L6.56076 9.32107L0.263997 5.77842ZM6.29673 9.7569L0 6.21427V17.7857L6.29673 14.2431V9.7569ZM7.07574 13.8048V10.1952L10.2836 12L7.07574 13.8048ZM6.56067 14.679L0.263997 18.2216L10.5347 24V16.9148L6.56067 14.679ZM10.5347 16.0382L7.33968 14.2407L10.5347 12.4432V16.0382ZM11.054 16.9148V24L21.3333 18.2167L15.0367 14.6741L11.054 16.9148ZM14.2577 14.2358L11.054 16.0383V12.4334L14.2577 14.2358ZM15.0366 9.32592L21.3333 5.78329L11.054 0V7.08525L15.0366 9.32592ZM10.5347 7.96186V11.5568L7.33977 9.75935L10.5347 7.96186Z" fill="white"/>
</svg>
